<mxfile host="app.diagrams.net" agent="Mozilla/5.0 (Macintosh; Intel Mac OS X 10_15_7) AppleWebKit/537.36 (KHTML, like Gecko) Chrome/136.0.0.0 Safari/537.36" version="26.1.1">
  <diagram id="VaIYWPx9nP5xtN2j_fBk" name="Page-1">
    <mxGraphModel dx="690" dy="1542" grid="1" gridSize="10" guides="1" tooltips="1" connect="1" arrows="1" fold="1" page="1" pageScale="1" pageWidth="1600" pageHeight="1100" math="0" shadow="0">
      <root>
        <mxCell id="0" />
        <mxCell id="1" parent="0" />
        <mxCell id="aws_cloud" value="AWS Cloud" style="points=[[0,0],[0.25,0],[0.5,0],[0.75,0],[1,0],[1,0.25],[1,0.5],[1,0.75],[1,1],[0.75,1],[0.5,1],[0.25,1],[0,1],[0,0.75],[0,0.5],[0,0.25]];outlineConnect=0;gradientColor=none;html=1;whiteSpace=wrap;fontSize=12;fontStyle=0;container=1;pointerEvents=0;collapsible=0;recursiveResize=0;shape=mxgraph.aws4.group;grIcon=mxgraph.aws4.group_aws_cloud_alt;strokeColor=#232F3E;fillColor=none;verticalAlign=top;align=left;spacingLeft=30;fontColor=#232F3E;dashed=0;" parent="1" vertex="1">
          <mxGeometry x="40" y="-40" width="1390" height="1040" as="geometry" />
        </mxCell>
        <mxCell id="eventbridge_scheduler" value="EventBridge&lt;br&gt;Scheduler" style="sketch=0;points=[[0,0,0],[0.25,0,0],[0.5,0,0],[0.75,0,0],[1,0,0],[0,1,0],[0.25,1,0],[0.5,1,0],[0.75,1,0],[1,1,0],[0,0.25,0],[0,0.5,0],[0,0.75,0],[1,0.25,0],[1,0.5,0],[1,0.75,0]];outlineConnect=0;fontColor=#232F3E;gradientColor=#FF4F8B;gradientDirection=north;fillColor=#BC1356;strokeColor=#ffffff;dashed=0;verticalLabelPosition=top;verticalAlign=bottom;align=center;html=1;fontSize=12;fontStyle=0;aspect=fixed;shape=mxgraph.aws4.resourceIcon;resIcon=mxgraph.aws4.eventbridge;labelPosition=center;" parent="aws_cloud" vertex="1">
          <mxGeometry x="60" y="240" width="78" height="78" as="geometry" />
        </mxCell>
        <mxCell id="lambda1_rss" value="Lambda 1&lt;br&gt;retrieve-rss-feeds-and-&lt;br&gt;download-audio-files" style="sketch=0;points=[[0,0,0],[0.25,0,0],[0.5,0,0],[0.75,0,0],[1,0,0],[0,1,0],[0.25,1,0],[0.5,1,0],[0.75,1,0],[1,1,0],[0,0.25,0],[0,0.5,0],[0,0.75,0],[1,0.25,0],[1,0.5,0],[1,0.75,0]];outlineConnect=0;fontColor=#232F3E;gradientColor=#F78E04;gradientDirection=north;fillColor=#D05C17;strokeColor=#ffffff;dashed=0;verticalLabelPosition=top;verticalAlign=bottom;align=center;html=1;fontSize=12;fontStyle=0;aspect=fixed;shape=mxgraph.aws4.resourceIcon;resIcon=mxgraph.aws4.lambda;labelPosition=center;" parent="aws_cloud" vertex="1">
          <mxGeometry x="230" y="240" width="78" height="78" as="geometry" />
        </mxCell>
        <mxCell id="lambda2_whisper" value="Lambda 2&lt;br&gt;process-new-audio-files-&lt;br&gt;via-whisper" style="sketch=0;points=[[0,0,0],[0.25,0,0],[0.5,0,0],[0.75,0,0],[1,0,0],[0,1,0],[0.25,1,0],[0.5,1,0],[0.75,1,0],[1,1,0],[0,0.25,0],[0,0.5,0],[0,0.75,0],[1,0.25,0],[1,0.5,0],[1,0.75,0]];outlineConnect=0;fontColor=#232F3E;gradientColor=#F78E04;gradientDirection=north;fillColor=#D05C17;strokeColor=#ffffff;dashed=0;verticalLabelPosition=top;verticalAlign=bottom;align=center;html=1;fontSize=12;fontStyle=0;aspect=fixed;shape=mxgraph.aws4.resourceIcon;resIcon=mxgraph.aws4.lambda;labelPosition=center;" parent="aws_cloud" vertex="1">
          <mxGeometry x="410" y="240" width="78" height="78" as="geometry" />
        </mxCell>
        <mxCell id="oP0dUq5yAEPXJNp-T5jW-3" style="edgeStyle=orthogonalEdgeStyle;rounded=0;orthogonalLoop=1;jettySize=auto;html=1;entryX=0.25;entryY=1;entryDx=0;entryDy=0;entryPerimeter=0;" edge="1" parent="aws_cloud" source="s3_static_website" target="s3_bucket">
          <mxGeometry relative="1" as="geometry">
            <Array as="points">
              <mxPoint x="629" y="680" />
              <mxPoint x="610" y="680" />
            </Array>
          </mxGeometry>
        </mxCell>
        <mxCell id="s3_bucket" value="Amazon S3&lt;br&gt;listen-fair-play-s3-bucket&lt;br&gt;&lt;i&gt;(.mp3, .srt, .json search entries, search_index.db, client app)&lt;/i&gt;" style="sketch=0;points=[[0,0,0],[0.25,0,0],[0.5,0,0],[0.75,0,0],[1,0,0],[0,1,0],[0.25,1,0],[0.5,1,0],[0.75,1,0],[1,1,0],[0,0.25,0],[0,0.5,0],[0,0.75,0],[1,0.25,0],[1,0.5,0],[1,0.75,0]];outlineConnect=0;fontColor=#232F3E;gradientColor=#60A337;gradientDirection=north;fillColor=#277116;strokeColor=#ffffff;dashed=0;verticalLabelPosition=bottom;verticalAlign=top;align=left;html=1;fontSize=12;fontStyle=0;aspect=fixed;shape=mxgraph.aws4.resourceIcon;resIcon=mxgraph.aws4.s3;labelPosition=right;" parent="aws_cloud" vertex="1">
          <mxGeometry x="590" y="501" width="78" height="78" as="geometry" />
        </mxCell>
        <mxCell id="cloudfront" value="CloudFront&lt;br&gt;Distribution" style="sketch=0;points=[[0,0,0],[0.25,0,0],[0.5,0,0],[0.75,0,0],[1,0,0],[0,1,0],[0.25,1,0],[0.5,1,0],[0.75,1,0],[1,1,0],[0,0.25,0],[0,0.5,0],[0,0.75,0],[1,0.25,0],[1,0.5,0],[1,0.75,0]];outlineConnect=0;fontColor=#232F3E;gradientColor=#945DF2;gradientDirection=north;fillColor=#5A30B5;strokeColor=#ffffff;dashed=0;verticalLabelPosition=bottom;verticalAlign=top;align=center;html=1;fontSize=12;fontStyle=0;aspect=fixed;shape=mxgraph.aws4.resourceIcon;resIcon=mxgraph.aws4.cloudfront;" parent="aws_cloud" vertex="1">
          <mxGeometry x="980" y="410" width="78" height="78" as="geometry" />
        </mxCell>
        <mxCell id="s3_static_website" value="S3 Static Website&lt;br&gt;(Client Application)" style="sketch=0;outlineConnect=0;fontColor=#232F3E;gradientColor=none;fillColor=#232F3D;strokeColor=none;dashed=0;verticalLabelPosition=bottom;verticalAlign=top;align=center;html=1;fontSize=12;fontStyle=0;aspect=fixed;pointerEvents=1;shape=mxgraph.aws4.traditional_server;" parent="aws_cloud" vertex="1">
          <mxGeometry x="595" y="680" width="68" height="118" as="geometry" />
        </mxCell>
        <mxCell id="lambda3_index" value="Lambda 3&lt;br&gt;convert-srt-files-into-&lt;br&gt;search-entries &amp; index" style="sketch=0;points=[[0,0,0],[0.25,0,0],[0.5,0,0],[0.75,0,0],[1,0,0],[0,1,0],[0.25,1,0],[0.5,1,0],[0.75,1,0],[1,1,0],[0,0.25,0],[0,0.5,0],[0,0.75,0],[1,0.25,0],[1,0.5,0],[1,0.75,0]];outlineConnect=0;fontColor=#232F3E;gradientColor=#F78E04;gradientDirection=north;fillColor=#D05C17;strokeColor=#ffffff;dashed=0;verticalLabelPosition=top;verticalAlign=bottom;align=center;html=1;fontSize=12;fontStyle=0;aspect=fixed;shape=mxgraph.aws4.resourceIcon;resIcon=mxgraph.aws4.lambda;labelPosition=center;" parent="aws_cloud" vertex="1">
          <mxGeometry x="630" y="240" width="78" height="78" as="geometry" />
        </mxCell>
        <mxCell id="api_gateway" value="API Gateway" style="sketch=0;points=[[0,0,0],[0.25,0,0],[0.5,0,0],[0.75,0,0],[1,0,0],[0,1,0],[0.25,1,0],[0.5,1,0],[0.75,1,0],[1,1,0],[0,0.25,0],[0,0.5,0],[0,0.75,0],[1,0.25,0],[1,0.5,0],[1,0.75,0]];outlineConnect=0;fontColor=#232F3E;gradientColor=#E7157B;gradientDirection=north;fillColor=#C21E77;strokeColor=#ffffff;dashed=0;verticalLabelPosition=top;verticalAlign=bottom;align=center;html=1;fontSize=12;fontStyle=0;aspect=fixed;shape=mxgraph.aws4.resourceIcon;resIcon=mxgraph.aws4.api_gateway;labelPosition=center;" parent="aws_cloud" vertex="1">
          <mxGeometry x="980" y="240" width="78" height="78" as="geometry" />
        </mxCell>
        <mxCell id="lambda4_search" value="Lambda 4&lt;br&gt;search-indexed-&lt;br&gt;transcripts" style="sketch=0;points=[[0,0,0],[0.25,0,0],[0.5,0,0],[0.75,0,0],[1,0,0],[0,1,0],[0.25,1,0],[0.5,1,0],[0.75,1,0],[1,1,0],[0,0.25,0],[0,0.5,0],[0,0.75,0],[1,0.25,0],[1,0.5,0],[1,0.75,0]];outlineConnect=0;fontColor=#232F3E;gradientColor=#F78E04;gradientDirection=north;fillColor=#D05C17;strokeColor=#ffffff;dashed=0;verticalLabelPosition=top;verticalAlign=bottom;align=center;html=1;fontSize=12;fontStyle=0;aspect=fixed;shape=mxgraph.aws4.resourceIcon;resIcon=mxgraph.aws4.lambda;labelPosition=center;" parent="aws_cloud" vertex="1">
          <mxGeometry x="780" y="240" width="78" height="78" as="geometry" />
        </mxCell>
        <mxCell id="edge_scheduler_lambda1" value="Triggers daily" style="edgeStyle=orthogonalEdgeStyle;rounded=0;orthogonalLoop=1;jettySize=auto;html=1;exitX=1;exitY=0.5;exitDx=0;exitDy=0;exitPerimeter=0;entryX=0;entryY=0.5;entryDx=0;entryDy=0;entryPerimeter=0;" parent="aws_cloud" source="eventbridge_scheduler" target="lambda1_rss" edge="1">
          <mxGeometry relative="1" as="geometry" />
        </mxCell>
        <mxCell id="edge_lambda1_lambda2" value="Triggers if new&lt;br&gt;files found" style="edgeStyle=orthogonalEdgeStyle;rounded=0;orthogonalLoop=1;jettySize=auto;html=1;exitX=1;exitY=0.5;exitDx=0;exitDy=0;exitPerimeter=0;entryX=0;entryY=0.5;entryDx=0;entryDy=0;entryPerimeter=0;" parent="aws_cloud" source="lambda1_rss" target="lambda2_whisper" edge="1">
          <mxGeometry relative="1" as="geometry" />
        </mxCell>
        <mxCell id="edge_lambda1_s3_audio" value="Uploads audio files (.mp3)" style="edgeStyle=orthogonalEdgeStyle;rounded=0;orthogonalLoop=1;jettySize=auto;html=1;exitX=0.5;exitY=1;exitDx=0;exitDy=0;" parent="aws_cloud" source="lambda1_rss" target="s3_bucket" edge="1">
          <mxGeometry x="0.2265" relative="1" as="geometry">
            <Array as="points">
              <mxPoint x="269" y="540" />
            </Array>
            <mxPoint as="offset" />
          </mxGeometry>
        </mxCell>
        <mxCell id="edge_lambda2_s3_srt" value="Uploads transcriptions (.srt)" style="edgeStyle=orthogonalEdgeStyle;rounded=0;orthogonalLoop=1;jettySize=auto;html=1;exitX=0.25;exitY=1;exitDx=0;exitDy=0;entryX=0;entryY=0;entryDx=0;entryDy=0;entryPerimeter=0;exitPerimeter=0;" parent="aws_cloud" source="lambda2_whisper" target="s3_bucket" edge="1">
          <mxGeometry x="-0.4061" relative="1" as="geometry">
            <Array as="points">
              <mxPoint x="430" y="500" />
            </Array>
            <mxPoint as="offset" />
          </mxGeometry>
        </mxCell>
        <mxCell id="edge_lambda2_lambda3" value="Triggers on new .srt&lt;br&gt;(or S3 event)" style="edgeStyle=orthogonalEdgeStyle;rounded=0;orthogonalLoop=1;jettySize=auto;html=1;exitX=1;exitY=0.5;exitDx=0;exitDy=0;entryX=0;entryY=0.5;entryDx=0;entryDy=0;" parent="aws_cloud" source="lambda2_whisper" target="lambda3_index" edge="1">
          <mxGeometry relative="1" as="geometry" />
        </mxCell>
        <mxCell id="edge_lambda3_s3_read_srt" value="Reads .srt files" style="edgeStyle=orthogonalEdgeStyle;rounded=0;orthogonalLoop=1;jettySize=auto;html=1;entryX=0.5;entryY=0;entryDx=0;entryDy=0;" parent="aws_cloud" target="s3_bucket" edge="1">
          <mxGeometry x="-0.448" relative="1" as="geometry">
            <Array as="points">
              <mxPoint x="610" y="318" />
              <mxPoint x="610" y="410" />
              <mxPoint x="629" y="410" />
            </Array>
            <mxPoint x="629" y="318" as="sourcePoint" />
            <mxPoint as="offset" />
          </mxGeometry>
        </mxCell>
        <mxCell id="edge_lambda3_s3_write_json" value="Writes .json search entries" style="edgeStyle=orthogonalEdgeStyle;rounded=0;orthogonalLoop=1;jettySize=auto;html=1;exitX=1;exitY=0.5;exitDx=0;exitDy=0;jettyRelative=1;exitPerimeter=0;" parent="aws_cloud" source="lambda3_index" edge="1">
          <mxGeometry x="-0.3808" relative="1" as="geometry">
            <Array as="points">
              <mxPoint x="760" y="279" />
              <mxPoint x="760" y="360" />
              <mxPoint x="730" y="360" />
              <mxPoint x="730" y="500" />
            </Array>
            <mxPoint x="669" y="500" as="targetPoint" />
            <mxPoint as="offset" />
          </mxGeometry>
        </mxCell>
        <mxCell id="edge_lambda3_s3_read_json" value="Reads .json search entries" style="edgeStyle=orthogonalEdgeStyle;rounded=0;orthogonalLoop=1;jettySize=auto;html=1;exitX=-0.051;exitY=0.859;exitDx=0;exitDy=0;jettyRelative=1;exitPerimeter=0;" parent="aws_cloud" source="lambda3_index" edge="1">
          <mxGeometry x="-0.0324" relative="1" as="geometry">
            <Array as="points">
              <mxPoint x="530" y="307" />
              <mxPoint x="530" y="460" />
              <mxPoint x="610" y="460" />
            </Array>
            <mxPoint x="610" y="501" as="targetPoint" />
            <mxPoint as="offset" />
          </mxGeometry>
        </mxCell>
        <mxCell id="edge_lambda3_s3_write_index" value="Writes &lt;br&gt;search_index.db" style="edgeStyle=orthogonalEdgeStyle;rounded=0;orthogonalLoop=1;jettySize=auto;html=1;exitX=0.5;exitY=1;exitDx=0;exitDy=0;entryX=0.75;entryY=0;entryDx=0;entryDy=0;entryPerimeter=0;" parent="aws_cloud" source="lambda3_index" target="s3_bucket" edge="1">
          <mxGeometry x="-0.2895" relative="1" as="geometry">
            <Array as="points">
              <mxPoint x="670" y="318" />
              <mxPoint x="670" y="450" />
              <mxPoint x="649" y="450" />
            </Array>
            <mxPoint as="offset" />
          </mxGeometry>
        </mxCell>
        <mxCell id="edge_s3_cloudfront" value="Serves static files (client app, .mp3, .srt)" style="edgeStyle=orthogonalEdgeStyle;rounded=0;orthogonalLoop=1;jettySize=auto;html=1;exitX=1;exitY=0.5;exitDx=0;exitDy=0;entryX=0;entryY=0.5;entryDx=0;entryDy=0;" parent="aws_cloud" source="s3_bucket" target="cloudfront" edge="1">
          <mxGeometry x="-0.2258" relative="1" as="geometry">
            <mxPoint as="offset" />
          </mxGeometry>
        </mxCell>
        <mxCell id="edge_s3_static_website" value="Hosts" style="edgeStyle=orthogonalEdgeStyle;rounded=0;orthogonalLoop=1;jettySize=auto;html=1;exitX=0.5;exitY=1;exitDx=0;exitDy=0;exitPerimeter=0;" parent="aws_cloud" source="s3_bucket" target="s3_static_website" edge="1">
          <mxGeometry x="0.0068" y="-9" relative="1" as="geometry">
            <Array as="points">
              <mxPoint x="629" y="620" />
              <mxPoint x="629" y="620" />
            </Array>
            <mxPoint as="offset" />
          </mxGeometry>
        </mxCell>
        <mxCell id="edge_users_apigw" value="Search query" style="edgeStyle=orthogonalEdgeStyle;rounded=0;orthogonalLoop=1;jettySize=auto;html=1;exitX=0;exitY=0.5;exitDx=0;exitDy=0;entryX=1;entryY=0.5;entryDx=0;entryDy=0;" parent="aws_cloud" source="users" target="api_gateway" edge="1">
          <mxGeometry relative="1" as="geometry">
            <mxPoint x="1200" y="279" as="sourcePoint" />
            <mxPoint x="1058" y="279" as="targetPoint" />
          </mxGeometry>
        </mxCell>
        <mxCell id="edge_apigw_lambda4" value="Triggers search" style="edgeStyle=orthogonalEdgeStyle;rounded=0;orthogonalLoop=1;jettySize=auto;html=1;exitX=0;exitY=0.5;exitDx=0;exitDy=0;entryX=1;entryY=0.5;entryDx=0;entryDy=0;" parent="aws_cloud" source="api_gateway" target="lambda4_search" edge="1">
          <mxGeometry relative="1" as="geometry" />
        </mxCell>
        <mxCell id="edge_lambda4_s3_read_index" value="Reads search_index.db" style="edgeStyle=orthogonalEdgeStyle;rounded=0;orthogonalLoop=1;jettySize=auto;html=1;exitX=1;exitY=1;exitDx=0;exitDy=0;entryX=1;entryY=0.25;entryDx=0;entryDy=0;entryPerimeter=0;exitPerimeter=0;" parent="aws_cloud" source="lambda4_search" target="s3_bucket" edge="1">
          <mxGeometry x="-0.5811" relative="1" as="geometry">
            <Array as="points">
              <mxPoint x="910" y="318" />
              <mxPoint x="910" y="410" />
              <mxPoint x="750" y="410" />
              <mxPoint x="750" y="521" />
            </Array>
            <mxPoint x="819" y="310" as="sourcePoint" />
            <mxPoint x="668" y="512.5" as="targetPoint" />
            <mxPoint as="offset" />
          </mxGeometry>
        </mxCell>
        <mxCell id="edge_lambda4_apigw_results" value="Returns search results" style="edgeStyle=orthogonalEdgeStyle;rounded=0;orthogonalLoop=1;jettySize=auto;html=1;exitX=1;exitY=0.25;exitDx=0;exitDy=0;entryX=0;entryY=0.25;entryDx=0;entryDy=0;" parent="aws_cloud" source="lambda4_search" target="api_gateway" edge="1">
          <mxGeometry relative="1" as="geometry">
            <Array as="points">
              <mxPoint x="880" y="260" />
              <mxPoint x="880" y="260" />
            </Array>
          </mxGeometry>
        </mxCell>
        <mxCell id="users" value="Users" style="sketch=0;outlineConnect=0;fontColor=#232F3E;gradientColor=none;fillColor=#232F3D;strokeColor=none;dashed=0;verticalLabelPosition=bottom;verticalAlign=top;align=center;html=1;fontSize=12;fontStyle=0;aspect=fixed;pointerEvents=1;shape=mxgraph.aws4.users;" parent="aws_cloud" vertex="1">
          <mxGeometry x="1260" y="464" width="78" height="78" as="geometry" />
        </mxCell>
        <mxCell id="edge_cloudfront_users" value="Serves client app &amp; media files" style="edgeStyle=orthogonalEdgeStyle;rounded=0;orthogonalLoop=1;jettySize=auto;html=1;exitX=1;exitY=0.5;exitDx=0;exitDy=0;entryX=0;entryY=0.5;entryDx=0;entryDy=0;" parent="aws_cloud" source="cloudfront" target="users" edge="1">
          <mxGeometry relative="1" as="geometry" />
        </mxCell>
        <mxCell id="oP0dUq5yAEPXJNp-T5jW-2" style="edgeStyle=orthogonalEdgeStyle;rounded=0;orthogonalLoop=1;jettySize=auto;html=1;exitX=0.5;exitY=1;exitDx=0;exitDy=0;exitPerimeter=0;" edge="1" parent="aws_cloud" source="s3_bucket" target="s3_bucket">
          <mxGeometry relative="1" as="geometry" />
        </mxCell>
        <mxCell id="data_flow_title" value="Data Flow Legend:" style="text;html=1;strokeColor=none;fillColor=none;align=left;verticalAlign=middle;whiteSpace=wrap;rounded=0;fontStyle=1;" parent="1" vertex="1">
          <mxGeometry x="70" y="800" width="150" height="30" as="geometry" />
        </mxCell>
        <mxCell id="data_flow_text" value="1. EventBridge Scheduler triggers Lambda 1 daily.&#xa;2. Lambda 1 retrieves RSS feeds, downloads new audio files (.mp3) to S3, and triggers Lambda 2.&#xa;3. Lambda 2 processes audio files from S3 via OpenAI Whisper API, creating transcriptions (.srt files) and uploading them to S3.&#xa;4. Lambda 2 (or S3 event on new .srt) triggers Lambda 3 (Index Generation).&#xa;5. Lambda 3 reads .srt files from S3, generates intermediate .json search entries (stores in S3), then reads these .json entries to build the final `search_index.db` (FlexSearch SQLite index) and uploads it to S3.&#xa;6. Users interact with the Client Application (hosted on S3, served by CloudFront).&#xa;7. Client Application sends search queries to API Gateway.&#xa;8. API Gateway triggers Lambda 4 (Search Lambda).&#xa;9. Lambda 4 loads the `search_index.db` from S3 and executes the search.&#xa;10. Lambda 4 returns search results through API Gateway to the Client Application.&#xa;11. CloudFront delivers the Client Application, audio files (.mp3), and transcript files (.srt) to users from S3." style="text;html=1;strokeColor=none;fillColor=none;align=left;verticalAlign=middle;whiteSpace=wrap;rounded=0;fontSize=11;" parent="1" vertex="1">
          <mxGeometry x="70" y="830" width="1450" height="130" as="geometry" />
        </mxCell>
        <mxCell id="openai_whisper" value="OpenAI&#xa;Whisper API" style="shape=image;verticalLabelPosition=top;labelBackgroundColor=none;verticalAlign=bottom;aspect=fixed;imageAspect=0;image=data:image/svg+xml,PHN2ZyB4bWxucz0iaHR0cDovL3d3dy53My5vcmcvMjAwMC9zdmciIHZpZXdCb3g9IjAgMCAyNCAyNCI+PHBhdGggZD0iTTIyLjIgOS4yYzAuMy0xIC0wLjMtMS44IC0xLjMtMS44aC00LjZjLTAuNyAwIC0xLjQgMC40IC0xLjcgMS4xbC0yLjMgNS44Yy0wLjIgMC41IC0wLjIgMS4xIDAgMS42bDEuMyAzLjNjMC4yIDAuNSAwLjcgMC44IDEuMyAwLjhoNi4xYzEgMCAxLjYgLTAuOSAxLjMgLTEuOGwtMi43IC03LjFsMi42IC0xLjl6TTEzLjkgYy0xIC0wLjkgYzAuMiAtMS44IC0xLjIgLTMuNCAtMy4xIC0zLjRIOC4xYC0wLjcgMCAtMS40IDAuNCAtMS43IDEuMUw0LjMgYzEuMWMtMC4yIDAuNSAtMC4yIDEuMSAwIDEuNmwxLjMgYzAuNSBjMC4yIDAuNSAwLjcgMC44IDEuMyAwLjhoMS41YzEuMiAwIDIuMiAwLjkgMi4zIDIuMWwwLjIgMi4zYzAgMC44IDAuNyAxLjUgMS41IDEuNWgwLjZjMSAwIDEuNiAtMC45IDEuMyAtMS44bC0wLjQgLTEuMXoiLz48L3N2Zz4=;labelPosition=center;align=center;" parent="1" vertex="1">
          <mxGeometry x="454" y="-160" width="70" height="70" as="geometry" />
        </mxCell>
        <mxCell id="edge_lambda2_openai" value="Sends audio chunks&lt;br&gt;for transcription" style="edgeStyle=orthogonalEdgeStyle;rounded=0;orthogonalLoop=1;jettySize=auto;html=1;exitX=0;exitY=0;exitDx=0;exitDy=0;entryX=0;entryY=0.5;entryDx=0;entryDy=0;exitPerimeter=0;" parent="1" source="lambda2_whisper" target="openai_whisper" edge="1">
          <mxGeometry x="0.0269" relative="1" as="geometry">
            <Array as="points">
              <mxPoint x="410" y="200" />
              <mxPoint x="410" y="-125" />
            </Array>
            <mxPoint as="offset" />
          </mxGeometry>
        </mxCell>
        <mxCell id="edge_openai_lambda2" value="Returns transcriptions" style="edgeStyle=orthogonalEdgeStyle;rounded=0;orthogonalLoop=1;jettySize=auto;html=1;entryX=1;entryY=0;entryDx=0;entryDy=0;entryPerimeter=0;" parent="1" target="lambda2_whisper" edge="1">
          <mxGeometry x="0.1848" relative="1" as="geometry">
            <Array as="points">
              <mxPoint x="580" y="-120" />
              <mxPoint x="580" y="200" />
            </Array>
            <mxPoint x="530" y="-120" as="sourcePoint" />
            <mxPoint as="offset" />
          </mxGeometry>
        </mxCell>
      </root>
    </mxGraphModel>
  </diagram>
</mxfile>
